<svg width="90" height="36" viewBox="0 2 126 36" fill="none" xmlns="http://www.w3.org/2000/svg" focusable="false" role="img">

  <path d="M71.2448 11.1927C69.4219 11.1927 68.0104 11.8802 67.0104 13.2552C66.0104 14.6198 65.5104 16.526 65.5104 18.974C65.5104 24.0677 67.4219 26.6146 71.2448 26.6146C72.849 26.6146 74.7917 26.2135 77.0729 25.4115V29.474C75.1979 30.2552 73.1042 30.6458 70.7917 30.6458C67.4687 30.6458 64.9271 29.6406 63.1667 27.6302C61.4062 25.6094 60.526 22.7135 60.526 18.9427C60.526 16.5677 60.9583 14.4896 61.8229 12.7083C62.6875 10.9167 63.9271 9.54688 65.5417 8.59896C67.1667 7.64062 69.0677 7.16146 71.2448 7.16146C73.4635 7.16146 75.6927 7.69792 77.9323 8.77083L76.3698 12.7083C75.5156 12.3021 74.6562 11.9479 73.7917 11.6458C72.9271 11.3438 72.0781 11.1927 71.2448 11.1927Z" fill="#132E57"/>
  <path d="M86.7135 30.3333H81.9479V7.48958H95.0417V11.4583H86.7135V17.349H94.4635V21.3021H86.7135V30.3333Z" fill="#132E57"/>
  <path d="M99.5104 30.3333V7.48958H104.354V30.3333H99.5104Z" fill="#132E57"/>
  <path d="M55.3221 8.77303C55.7552 7.94364 56 7.00041 56 6C56 2.68629 53.3137 0 50 0C47.5985 0 45.5266 1.41083 44.5678 3.44886L32.6956 27.1932C32.2515 28.0308 32 28.986 32 30C32 33.3137 34.6863 36 38 36C40.3879 36 42.45 34.605 43.4159 32.5856L55.3221 8.77303Z" fill="#132E57"/>
  <path d="M37.3221 12.7731C37.7551 11.9437 38 11.0004 38 10C38 6.68629 35.3137 4 32 4C29.5985 4 27.5266 5.41082 26.5678 7.44884L16.6956 27.1932C16.2515 28.0308 16 28.986 16 30C16 33.3137 18.6863 36 22 36C24.388 36 26.4501 34.605 27.4159 32.5855L37.3221 12.7731Z" fill="#132E57"/>
  <path d="M19.3221 16.7731C19.7551 15.9437 20 15.0004 20 14C20 10.6863 17.3137 8 14 8C11.5985 8 9.52661 9.41082 8.56782 11.4488L0.695618 27.1932C0.251537 28.0307 0 28.986 0 30C0 33.3137 2.68629 36 6 36C8.38793 36 10.4501 34.605 11.4159 32.5855L19.3221 16.7731Z" fill="#132E57"/>
</svg>

